A1																		
version=1																		
nRows=45
nColumns=19																		
inDegrees=yes																		
endheader
time	ground_force1_vx	ground_force1_vy	ground_force1_vz	ground_force1_px	ground_force1_py	ground_force1_pz	ground_torque1_x	ground_torque1_y	ground_torque1_z	ground_force2_vx	ground_force2_vy	ground_force2_vz	ground_force2_px	ground_force2_py	ground_force2_pz	ground_torque2_x	ground_torque2_y	ground_torque2_z
190.25000000	6.60785854	14.79072506	1.12122483	0.93041420	0.00000000	-0.68127831	0.00000056	0.17301651	0.00000083	-121.35987736	804.22844740	-74.67578100	1.33409523	0.00000000	-0.41466114	0.00002072	0.91205911	0.00005991
190.25100000	5.49944949	12.12515865	0.97491245	0.93018024	0.00000000	-0.68413681	0.00000046	0.14031968	0.00000069	-121.50692175	807.87484346	-75.11520985	1.33255519	0.00000000	-0.41439336	0.00002083	0.90027364	0.00006028
190.25200000	4.49962542	9.75776956	0.83727941	0.92993292	0.00000000	-0.68701744	0.00000038	0.11140559	0.00000056	-121.62579154	811.43217325	-75.53761183	1.33102674	0.00000000	-0.41413439	0.00002094	0.88812622	0.00006065
190.25300000	3.60506884	7.67541793	0.70789236	0.92967214	0.00000000	-0.68991853	0.00000031	0.08614078	0.00000045	-121.71678501	814.89993295	-75.94305654	1.32951048	0.00000000	-0.41388430	0.00002104	0.87562720	0.00006100
190.25400000	2.81239696	5.86506059	0.58633406	0.92939785	0.00000000	-0.69283833	0.00000024	0.06439026	0.00000035	-121.78021422	818.27764684	-76.33162731	1.32800698	0.00000000	-0.41364309	0.00002115	0.86278719	0.00006134
190.25500000	2.11816857	4.31376500	0.47220324	0.92911001	0.00000000	-0.69577511	0.00000018	0.04601782	0.00000026	-121.81640432	821.56486728	-76.70342082	1.32651676	0.00000000	-0.41341080	0.00002125	0.84961700	0.00006168
190.25600000	1.51889083	3.00872290	0.36511429	0.92880863	0.00000000	-0.69872709	0.00000013	0.03088620	0.00000019	-121.82569300	824.76117477	-77.05854680	1.32504033	0.00000000	-0.41318743	0.00002135	0.83612771	0.00006201
190.25700000	1.01102603	1.93726345	0.26469707	0.92849371	0.00000000	-0.70169249	0.00000009	0.01885737	0.00000012	-121.80842980	827.86617790	-77.39712758	1.32357814	0.00000000	-0.41297296	0.00002145	0.82233057	0.00006233
190.25800000	0.59099831	1.08686608	0.17059659	0.92816532	0.00000000	-0.70466949	0.00000005	0.00979272	0.00000007	-121.76497552	830.87951346	-77.71929776	1.32213061	0.00000000	-0.41276737	0.00002155	0.80823705	0.00006264
190.25900000	0.25520036	0.44517278	0.08247275	0.92782351	0.00000000	-0.70765628	0.00000002	0.00355329	0.00000003	-121.69570157	833.80084639	-78.02520382	1.32069813	0.00000000	-0.41257064	0.00002164	0.79385878	0.00006294
190.26000000	0.00000000	0.00000000	0.00000000	0.92746839	0.00000000	-0.71065103	0.00000000	0.00000000	0.00000000	-121.60098941	836.62986985	-78.31500369	1.31928104	0.00000000	-0.41238271	0.00002173	0.77920758	0.00006324
190.26100000	0.00000000	0.00000000	0.00000000	0.88900000	0.00000000	-0.84017500	0.00000000	0.00000000	0.00000000	-121.48122983	839.36630525	-78.58886634	1.31787967	0.00000000	-0.41220353	0.00002183	0.76429541	0.00006352
190.26200000	0.00000000	0.00000000	0.00000000	0.88900000	0.00000000	-0.84017500	0.00000000	0.00000000	0.00000000	-121.33682244	842.00990226	-78.84697139	1.31649429	0.00000000	-0.41203303	0.00002191	0.74913436	0.00006380
190.26300000	0.00000000	0.00000000	0.00000000	0.88900000	0.00000000	-0.84017500	0.00000000	0.00000000	0.00000000	-121.16817501	844.56043885	-79.08950865	1.31512516	0.00000000	-0.41187113	0.00002200	0.73373666	0.00006406
190.26400000	0.00000000	0.00000000	0.00000000	0.88900000	0.00000000	-0.84017500	0.00000000	0.00000000	0.00000000	-120.97570286	847.01772138	-79.31667768	1.31377251	0.00000000	-0.41171774	0.00002209	0.71811464	0.00006432
190.26500000	0.00000000	0.00000000	0.00000000	0.88900000	0.00000000	-0.84017500	0.00000000	0.00000000	0.00000000	-120.75982829	849.38158455	-79.52868739	1.31243650	0.00000000	-0.41157277	0.00002217	0.70228072	0.00006457
190.26600000	0.00000000	0.00000000	0.00000000	0.88900000	0.00000000	-0.84017500	0.00000000	0.00000000	0.00000000	-120.52098001	851.65189151	-79.72575554	1.31111731	0.00000000	-0.41143609	0.00002225	0.68624739	0.00006480
190.26700000	0.00000000	0.00000000	0.00000000	0.88900000	0.00000000	-0.84017500	0.00000000	0.00000000	0.00000000	-120.25959251	853.82853389	-79.90810834	1.30981506	0.00000000	-0.41130760	0.00002233	0.67002720	0.00006503
190.26800000	0.00000000	0.00000000	0.00000000	0.88900000	0.00000000	-0.84017500	0.00000000	0.00000000	0.00000000	-119.97610554	855.91143182	-80.07597993	1.30852985	0.00000000	-0.41118718	0.00002241	0.65363274	0.00006525
190.26900000	0.00000000	0.00000000	0.00000000	0.88900000	0.00000000	-0.84017500	0.00000000	0.00000000	0.00000000	-119.67096354	857.90053399	-80.22961201	1.30726174	0.00000000	-0.41107468	0.00002248	0.63707663	0.00006546
190.27000000	0.00000000	0.00000000	0.00000000	0.88900000	0.00000000	-0.84017500	0.00000000	0.00000000	0.00000000	-119.34461509	859.79581772	-80.36925328	1.30601077	0.00000000	-0.41096996	0.00002256	0.62037149	0.00006566
190.27100000	0.00000000	0.00000000	0.00000000	0.88900000	0.00000000	-0.84017500	0.00000000	0.00000000	0.00000000	-118.99751235	861.59728897	-80.49515906	1.30477697	0.00000000	-0.41087288	0.00002263	0.60352994	0.00006585
190.27200000	0.00000000	0.00000000	0.00000000	0.88900000	0.00000000	-0.84017500	0.00000000	0.00000000	0.00000000	-118.63011058	863.30498240	-80.60759079	1.30356032	0.00000000	-0.41078327	0.00002269	0.58656457	0.00006603
190.27300000	0.00000000	0.00000000	0.00000000	0.88900000	0.00000000	-0.84017500	0.00000000	0.00000000	0.00000000	-118.24286761	864.91896142	-80.70681556	1.30236078	0.00000000	-0.41070098	0.00002276	0.56948792	0.00006620
190.27400000	0.00000000	0.00000000	0.00000000	0.88900000	0.00000000	-0.84017500	0.00000000	0.00000000	0.00000000	-117.83624333	866.43931825	-80.79310568	1.30117830	0.00000000	-0.41062584	0.00002283	0.55231248	0.00006636
190.27500000	0.00000000	0.00000000	0.00000000	0.88900000	0.00000000	-0.84017500	0.00000000	0.00000000	0.00000000	-117.41069920	867.86617393	-80.86673821	1.30001277	0.00000000	-0.41055767	0.00002289	0.53505067	0.00006651
190.27600000	0.00000000	0.00000000	0.00000000	0.88900000	0.00000000	-0.84017500	0.00000000	0.00000000	0.00000000	-116.96669782	869.19967839	-80.92799449	1.29886411	0.00000000	-0.41049630	0.00002295	0.51771481	0.00006665
190.27700000	0.00000000	0.00000000	0.00000000	0.88900000	0.00000000	-0.84017500	0.00000000	0.00000000	0.00000000	-116.50470240	870.44001050	-80.97715971	1.29773218	0.00000000	-0.41044153	0.00002301	0.50031712	0.00006678
190.27800000	0.00000000	0.00000000	0.00000000	0.88900000	0.00000000	-0.84017500	0.00000000	0.00000000	0.00000000	-116.02517640	871.58737809	-81.01452245	1.29661682	0.00000000	-0.41039318	0.00002306	0.48286968	0.00006690
190.27900000	0.00000000	0.00000000	0.00000000	0.88900000	0.00000000	-0.84017500	0.00000000	0.00000000	0.00000000	-115.52858302	872.64201797	-81.04037422	1.29551787	0.00000000	-0.41035106	0.00002312	0.46538447	0.00006701
190.28000000	0.00000000	0.00000000	0.00000000	0.88900000	0.00000000	-0.84017500	0.00000000	0.00000000	0.00000000	-115.01538484	873.60419601	-81.05500908	1.29443514	0.00000000	-0.41031496	0.00002317	0.44787328	0.00006711
190.28100000	0.00000000	0.00000000	0.00000000	0.88900000	0.00000000	-0.84017500	0.00000000	0.00000000	0.00000000	-114.48604339	874.47420715	-81.05872314	1.29336841	0.00000000	-0.41028470	0.00002322	0.43034776	0.00006720
190.28200000	0.00000000	0.00000000	0.00000000	0.88900000	0.00000000	-0.84017500	0.00000000	0.00000000	0.00000000	-113.94101880	875.25237540	-81.05181418	1.29231746	0.00000000	-0.41026006	0.00002326	0.41281936	0.00006728
190.28300000	0.00000000	0.00000000	0.00000000	0.88900000	0.00000000	-0.84017500	0.00000000	0.00000000	0.00000000	-113.38076938	875.93905391	-81.03458122	1.29128204	0.00000000	-0.41024084	0.00002331	0.39529934	0.00006735
190.28400000	0.00000000	0.00000000	0.00000000	0.88900000	0.00000000	-0.84017500	0.00000000	0.00000000	0.00000000	-112.80575132	876.53462494	-81.00732410	1.29026190	0.00000000	-0.41022684	0.00002335	0.37779876	0.00006741
190.28500000	0.00000000	0.00000000	0.00000000	0.88900000	0.00000000	-0.84017500	0.00000000	0.00000000	0.00000000	-112.21641832	877.03949990	-80.97034309	1.28925677	0.00000000	-0.41021784	0.00002339	0.36032845	0.00006746
190.28600000	0.00000000	0.00000000	0.00000000	0.88900000	0.00000000	-0.84017500	0.00000000	0.00000000	0.00000000	-111.61322129	877.45411932	-80.92393852	1.28826634	0.00000000	-0.41021363	0.00002342	0.34289899	0.00006751
190.28700000	0.00000000	0.00000000	0.00000000	0.88900000	0.00000000	-0.84017500	0.00000000	0.00000000	0.00000000	-110.99660801	877.77895290	-80.86841034	1.28729031	0.00000000	-0.41021400	0.00002346	0.32552073	0.00006754
190.28800000	0.00000000	0.00000000	0.00000000	0.88900000	0.00000000	-0.84017500	0.00000000	0.00000000	0.00000000	-110.36702287	878.01449947	-80.80405782	1.28632838	0.00000000	-0.41021874	0.00002349	0.30820374	0.00006756
190.28900000	0.00000000	0.00000000	0.00000000	0.88900000	0.00000000	-0.84017500	0.00000000	0.00000000	0.00000000	-109.72490662	878.16128693	-80.73117912	1.28538022	0.00000000	-0.41022763	0.00002352	0.29095783	0.00006757
190.29000000	0.00000000	0.00000000	0.00000000	0.88900000	0.00000000	-0.84017500	0.00000000	0.00000000	0.00000000	-109.07069604	878.21987232	-80.65007100	1.28444548	0.00000000	-0.41024047	0.00002354	0.27379250	0.00006757
190.29100000	0.00000000	0.00000000	0.00000000	0.88900000	0.00000000	-0.84017500	0.00000000	0.00000000	0.00000000	-108.40482375	878.19084170	-80.56102843	1.28352381	0.00000000	-0.41025703	0.00002357	0.25671697	0.00006756
190.29200000	0.00000000	0.00000000	0.00000000	0.88900000	0.00000000	-0.84017500	0.00000000	0.00000000	0.00000000	-107.72771799	878.07481014	-80.46434430	1.28261486	0.00000000	-0.41027711	0.00002359	0.23974016	0.00006755
190.29300000	0.00000000	0.00000000	0.00000000	0.88900000	0.00000000	-0.84017500	0.00000000	0.00000000	0.00000000	-107.03980235	877.87242166	-80.36030909	1.28171827	0.00000000	-0.41030049	0.00002361	0.22287064	0.00006752
190.29400000	0.00000000	0.00000000	0.00000000	0.88900000	0.00000000	-0.84017500	0.00000000	0.00000000	0.00000000	-106.34149564	877.58434917	-80.24921057	1.28083365	0.00000000	-0.41032696	0.00002363	0.20611667	0.00006749
